<?xml version="1.0" encoding="utf-8"?>
<!-- Generator: Adobe Illustrator 22.1.0, SVG Export Plug-In . SVG Version: 6.00 Build 0)  -->
<svg version="1.1" id="Layer_1" xmlns="http://www.w3.org/2000/svg" xmlns:xlink="http://www.w3.org/1999/xlink" x="0px" y="0px"
	 viewBox="0 0 44 44" style="enable-background:new 0 0 44 44;" xml:space="preserve">
<style type="text/css">
	.st0{fill:#00946F;}
	.st1{fill:#FFFFFF;}
</style>
<g>
	<circle class="st0" cx="22" cy="22" r="22"/>
</g>
<g>
	<g>
		<g>
			<path class="st1" d="M22,10.6c-5,0-9.1,4.1-9.1,9.1s4.1,9.2,9.1,9.2s9.1-4.1,9.1-9.2S27,10.6,22,10.6z M22,24.3
				c-2.5,0-4.6-2.1-4.6-4.6s2.1-4.6,4.6-4.6s4.6,2.1,4.6,4.6S24.5,24.3,22,24.3z"/>
		</g>
	</g>
	<g>
		<g>
			<path class="st1" d="M22,17.4c-0.2,0-0.5,0-0.6,0.1c0.6,1-0.7,2.2-1.6,1.6c-0.1,0.1-0.1,0.3-0.1,0.6c0,1.3,1,2.3,2.3,2.3
				s2.3-1,2.3-2.3S23.3,17.4,22,17.4z"/>
		</g>
	</g>
	<g>
		<g>
			<path class="st1" d="M28.1,29.4c-1.8,1.1-3.9,1.7-6.1,1.7c-2.3,0-4.3-0.6-6.1-1.7L14,32.6c-0.2,0.3,0,0.8,0.5,0.8h14.9
				c0.5,0,0.7-0.5,0.7-0.8L28.1,29.4z"/>
		</g>
	</g>
</g>
</svg>
