<?xml version="1.0" encoding="utf-8"?>
<!-- Generator: Adobe Illustrator 26.0.2, SVG Export Plug-In . SVG Version: 6.00 Build 0)  -->
<svg version="1.1" id="Layer_1" xmlns="http://www.w3.org/2000/svg" xmlns:xlink="http://www.w3.org/1999/xlink" x="0px" y="0px"
	 viewBox="0 0 84 84" style="enable-background:new 0 0 84 84;" xml:space="preserve">
<style type="text/css">
	.st0{fill:#498FFC;}
</style>
<g id="a">
</g>
<g id="b">
</g>
<g id="c">
</g>
<g id="d">
	<path class="st0" d="M43.5,20.5c14.8,0,27,9.7,27,21.6s-12.2,21.6-27,21.6c-3.3,0-6.6-0.5-9.5-1.3c-7.9,6.8-17.5,6.8-17.5,6.8
		c6.3-6.3,7.3-10.5,7.4-12.2c-4.6-3.9-7.4-9.1-7.4-14.8C16.5,30.2,28.7,20.5,43.5,20.5 M57,44.8v-5.4h-5.4v5.4H57 M46.2,44.8v-5.4
		h-5.4v5.4H46.2 M35.4,44.8v-5.4H30v5.4H35.4z"/>
</g>
</svg>
