<?xml version="1.0" encoding="utf-8"?>
<!-- Generator: Adobe Illustrator 22.1.0, SVG Export Plug-In . SVG Version: 6.00 Build 0)  -->
<svg version="1.1" id="Layer_5" xmlns="http://www.w3.org/2000/svg" xmlns:xlink="http://www.w3.org/1999/xlink" x="0px" y="0px"
	 viewBox="0 0 93 122" style="enable-background:new 0 0 93 122;" xml:space="preserve">
<style type="text/css">
	.st0{fill:#002850;}
	.st1{fill:#E6E6E6;stroke:#002850;stroke-miterlimit:10;}
	.st2{fill:#FCC030;stroke:#002850;stroke-miterlimit:10;}
	.st3{fill:#FFDE84;}
</style>
<g>
	<path class="st0" d="M84,58h-6.9V34.5c0-13.8-11.2-25-25-25h-3c-13.8,0-25,11.2-25,25V58H16c-2.8,0-5,2.2-5,5v50c0,2.8,2.2,5,5,5
		h68c2.8,0,5-2.2,5-5V63C89,60.2,86.8,58,84,58z M34.1,34.5c0-8.3,6.7-15,15-15h3c8.3,0,15,6.7,15,15V58h-33V34.5z"/>
	<polyline class="st0" points="87.9,59.9 83.8,55 78,61 88,63 88,60.1 	"/>
	<polygon class="st0" points="12.8,116.8 8.2,113 10,111 16,112 15,115 	"/>
	<path class="st1" d="M48.1,87h-3c-13.8,0-25-11.2-25-25V30.5c0-13.8,11.2-25,25-25h3c13.8,0,25,11.2,25,25V62
		C73.1,75.8,61.9,87,48.1,87z M45.1,15.5c-8.3,0-15,6.7-15,15V62c0,8.3,6.7,15,15,15h3c8.3,0,15-6.7,15-15V30.5c0-8.3-6.7-15-15-15
		H45.1z"/>
	<path class="st2" d="M80,114H12c-2.8,0-5-2.2-5-5V59c0-2.8,2.2-5,5-5h68c2.8,0,5,2.2,5,5v50C85,111.8,82.8,114,80,114z"/>
	<circle class="st0" cx="46.5" cy="78.5" r="5.7"/>
	<g>
		<polygon class="st0" points="46.6,81 46.6,94 40.6,94 44.6,81 		"/>
		<polygon class="st0" points="46.6,81 46.6,94 52.6,94 48.6,81 		"/>
	</g>
	<path class="st3" d="M15.5,85.5L15.5,85.5c-1.7,0-3-1.3-3-3v-19c0-1.6,1.3-3,3-3h0c1.6,0,3,1.3,3,3v19
		C18.5,84.2,17.2,85.5,15.5,85.5z"/>
	<path class="st3" d="M15.5,100L15.5,100c-1.7,0-3-1.3-3-3v-4.5c0-1.7,1.3-3,3-3h0c1.6,0,3,1.3,3,3V97C18.5,98.7,17.2,100,15.5,100z
		"/>
</g>
</svg>
