<?xml version="1.0" encoding="utf-8"?>
<!-- Generator: Adobe Illustrator 22.1.0, SVG Export Plug-In . SVG Version: 6.00 Build 0)  -->
<svg version="1.1" id="Layer_1_copy" xmlns="http://www.w3.org/2000/svg" xmlns:xlink="http://www.w3.org/1999/xlink" x="0px"
	 y="0px" viewBox="0 0 44 44" style="enable-background:new 0 0 44 44;" xml:space="preserve">
<style type="text/css">
	.st0{fill:#F02A42;}
	.st1{fill:#FFFFFF;}
</style>
<g>
	<circle class="st0" cx="22" cy="22" r="22"/>
</g>
<g>
	<g>
		<path class="st1" d="M22,26.6c1.3,0,2.4-0.5,3.3-1.4c0.9-0.9,1.4-2,1.4-3.3v-7.4c0-1.3-0.5-2.4-1.4-3.3c-0.9-0.9-2-1.4-3.3-1.4
			c-1.3,0-2.4,0.5-3.3,1.4c-0.9,0.9-1.4,2-1.4,3.3V22c0,1.3,0.5,2.4,1.4,3.3C19.6,26.2,20.7,26.6,22,26.6z"/>
		<path class="st1" d="M30,19.5c-0.2-0.2-0.4-0.3-0.6-0.3c-0.2,0-0.5,0.1-0.6,0.3c-0.2,0.2-0.3,0.4-0.3,0.6V22
			c0,1.8-0.6,3.3-1.9,4.6c-1.3,1.3-2.8,1.9-4.6,1.9c-1.8,0-3.3-0.6-4.6-1.9c-1.3-1.3-1.9-2.8-1.9-4.6v-1.8c0-0.2-0.1-0.5-0.3-0.6
			c-0.2-0.2-0.4-0.3-0.6-0.3s-0.5,0.1-0.6,0.3c-0.2,0.2-0.3,0.4-0.3,0.6V22c0,2.1,0.7,4,2.1,5.5c1.4,1.6,3.2,2.5,5.3,2.7v1.9h-3.7
			c-0.3,0-0.5,0.1-0.6,0.3c-0.2,0.2-0.3,0.4-0.3,0.6c0,0.2,0.1,0.5,0.3,0.6c0.2,0.2,0.4,0.3,0.6,0.3h9.2c0.2,0,0.5-0.1,0.6-0.3
			c0.2-0.2,0.3-0.4,0.3-0.6c0-0.2-0.1-0.5-0.3-0.6c-0.2-0.2-0.4-0.3-0.6-0.3h-3.7v-1.9c2.1-0.2,3.8-1.1,5.3-2.7
			c1.4-1.6,2.1-3.4,2.1-5.5v-1.8C30.3,19.9,30.2,19.7,30,19.5z"/>
	</g>
</g>
<rect x="6.2" y="21.5" transform="matrix(0.7071 -0.7071 0.7071 0.7071 -9.5578 21.6603)" class="st1" width="30.4" height="1.8"/>
<rect x="7.5" y="22.7" transform="matrix(0.7071 -0.7071 0.7071 0.7071 -10.0818 22.9255)" class="st0" width="30.4" height="1.8"/>
</svg>
