<?xml version="1.0" encoding="utf-8"?>
<!-- Generator: Adobe Illustrator 22.1.0, SVG Export Plug-In . SVG Version: 6.00 Build 0)  -->
<svg version="1.1" xmlns="http://www.w3.org/2000/svg" xmlns:xlink="http://www.w3.org/1999/xlink" x="0px" y="0px"
	 viewBox="0 0 720 400" style="enable-background:new 0 0 720 400;" xml:space="preserve">
<style type="text/css">
	.st0{display:none;}
	.st1{display:inline;}
	.st2{fill:#F2F5FF;}
	.st3{fill:#4477F2;}
</style>
<g id="Layer_1" class="st0">
	<g id="r9TIu7.tif" class="st1">
		<image style="overflow:visible;" width="720" height="400" id="Layer_0_1_" xlink:href="A85A7C7C1621B800.png" >
		</image>
	</g>
</g>
<g id="Layer_4">
	<rect x="0" class="st2" width="720" height="400"/>
</g>
<g id="Layer_3_copy">
	<g>
		<path class="st3" d="M327.1,150.6l-0.4,43.9c0,3.4,2.7,6.1,6.1,6.2l42.8,0.4c0.3,0,0.7,0,1-0.1L327.1,150.6z"/>
		<path class="st3" d="M381.7,191.1l0.4-41.4c0-3.4-2.7-6.1-6.1-6.2l-41.4-0.4L381.7,191.1z"/>
	</g>
	<path class="st3" d="M398.6,218.3c-0.6,0-1.2-0.2-1.7-0.7L309,128.2c-0.9-1-0.9-2.5,0-3.5c1-0.9,2.5-0.9,3.5,0l87.8,89.4
		c0.9,1,0.9,2.5,0,3.5C399.9,218.1,399.2,218.3,398.6,218.3z"/>
	<polygon class="st3" points="386.8,166.6 412.5,144.6 412.5,198.4 386.8,176.4 	"/>
</g>
<g id="Layer_5">
	<g>
		<path class="st3" d="M236.8,242.5v16.8h-3.4l-7.6-11.5v11.5h-3.4v-16.8h3.4l7.6,11.5v-11.5H236.8z"/>
		<path class="st3" d="M246,259.5c-3.8,0-6.7-2.7-6.7-6.9c0-4.2,3-6.9,6.8-6.9s6.8,2.7,6.8,6.9C252.9,256.8,249.9,259.5,246,259.5z
			 M246,256.5c1.8,0,3.5-1.3,3.5-3.9c0-2.7-1.7-3.9-3.4-3.9c-1.8,0-3.4,1.3-3.4,3.9C242.7,255.3,244.2,256.5,246,256.5z"/>
		<path class="st3" d="M266.8,245.7c3.3,0,5.5,1.7,6.3,4.7h-3.6c-0.4-1.1-1.3-1.8-2.7-1.8c-1.9,0-3.1,1.4-3.1,4c0,2.6,1.2,4,3.1,4
			c1.4,0,2.3-0.6,2.7-1.8h3.6c-0.7,2.8-3,4.7-6.3,4.7c-3.8,0-6.6-2.7-6.6-6.9C260.3,248.4,263,245.7,266.8,245.7z"/>
		<path class="st3" d="M280.8,245.7c2.1,0,3.6,1,4.4,2.1V246h3.4v13.3h-3.4v-1.9c-0.8,1.2-2.3,2.2-4.4,2.2c-3.4,0-6-2.8-6-6.9
			S277.4,245.7,280.8,245.7z M281.6,248.7c-1.8,0-3.5,1.3-3.5,3.9c0,2.5,1.7,4,3.5,4c1.8,0,3.5-1.4,3.5-3.9S283.5,248.7,281.6,248.7
			z"/>
		<path class="st3" d="M310.4,251.9c0-2.1-1.2-3.2-3-3.2c-1.8,0-3,1.1-3,3.2v7.3h-3.4v-7.3c0-2.1-1.2-3.2-3-3.2c-1.8,0-3,1.1-3,3.2
			v7.3h-3.4V246h3.4v1.6c0.8-1.1,2.3-1.8,3.9-1.8c2.1,0,3.8,0.9,4.7,2.5c0.9-1.5,2.6-2.5,4.6-2.5c3.2,0,5.4,2,5.4,5.7v7.8h-3.4
			V251.9z"/>
		<path class="st3" d="M322.8,259.5c-3.9,0-6.7-2.7-6.7-6.9c0-4.2,2.7-6.9,6.7-6.9c3.8,0,6.6,2.6,6.6,6.6c0,0.4,0,0.9-0.1,1.3h-9.7
			c0.2,2,1.5,3.1,3.2,3.1c1.4,0,2.2-0.7,2.7-1.6h3.6C328.3,257.5,326.1,259.5,322.8,259.5z M319.6,251.4h6.3c0-1.8-1.4-2.9-3.2-2.9
			C321.1,248.5,319.8,249.5,319.6,251.4z"/>
		<path class="st3" d="M335.2,259.3h-3.4V246h3.4v2.1c0.8-1.4,2.2-2.3,4.1-2.3v3.5h-0.9c-2,0-3.2,0.8-3.2,3.3V259.3z"/>
		<path class="st3" d="M346.7,245.7c2.1,0,3.6,1,4.4,2.1V246h3.4v13.3h-3.4v-1.9c-0.8,1.2-2.3,2.2-4.4,2.2c-3.4,0-6-2.8-6-6.9
			S343.3,245.7,346.7,245.7z M347.6,248.7c-1.8,0-3.5,1.3-3.5,3.9c0,2.5,1.7,4,3.5,4c1.8,0,3.5-1.4,3.5-3.9S349.4,248.7,347.6,248.7
			z"/>
		<path class="st3" d="M369.2,245.7c3.3,0,5.5,1.7,6.3,4.7h-3.6c-0.4-1.1-1.3-1.8-2.7-1.8c-1.9,0-3.1,1.4-3.1,4c0,2.6,1.2,4,3.1,4
			c1.4,0,2.3-0.6,2.7-1.8h3.6c-0.7,2.8-3,4.7-6.3,4.7c-3.8,0-6.6-2.7-6.6-6.9C362.6,248.4,365.4,245.7,369.2,245.7z"/>
		<path class="st3" d="M383.8,259.5c-3.8,0-6.7-2.7-6.7-6.9c0-4.2,3-6.9,6.8-6.9c3.8,0,6.8,2.7,6.8,6.9
			C390.8,256.8,387.7,259.5,383.8,259.5z M383.8,256.5c1.8,0,3.5-1.3,3.5-3.9c0-2.7-1.7-3.9-3.4-3.9s-3.4,1.3-3.4,3.9
			C380.5,255.3,382,256.5,383.8,256.5z"/>
		<path class="st3" d="M402.6,251.9c0-2.1-1.2-3.3-3-3.3c-1.8,0-3,1.2-3,3.3v7.3h-3.4V246h3.4v1.7c0.9-1.1,2.3-1.8,4-1.8
			c3.1,0,5.3,2,5.3,5.7v7.8h-3.4V251.9z"/>
		<path class="st3" d="M418.4,251.9c0-2.1-1.2-3.3-3-3.3c-1.8,0-3,1.2-3,3.3v7.3h-3.4V246h3.4v1.7c0.9-1.1,2.3-1.8,4-1.8
			c3.1,0,5.3,2,5.3,5.7v7.8h-3.4V251.9z"/>
		<path class="st3" d="M430.8,259.5c-3.9,0-6.7-2.7-6.7-6.9c0-4.2,2.7-6.9,6.7-6.9c3.8,0,6.6,2.6,6.6,6.6c0,0.4,0,0.9-0.1,1.3h-9.7
			c0.2,2,1.5,3.1,3.2,3.1c1.4,0,2.2-0.7,2.7-1.6h3.6C436.3,257.5,434.1,259.5,430.8,259.5z M427.5,251.4h6.3c0-1.8-1.4-2.9-3.2-2.9
			C429.1,248.5,427.8,249.5,427.5,251.4z"/>
		<path class="st3" d="M445.5,245.7c3.3,0,5.5,1.7,6.3,4.7h-3.6c-0.4-1.1-1.3-1.8-2.7-1.8c-1.9,0-3.1,1.4-3.1,4c0,2.6,1.2,4,3.1,4
			c1.4,0,2.3-0.6,2.7-1.8h3.6c-0.7,2.8-3,4.7-6.3,4.7c-3.8,0-6.6-2.7-6.6-6.9C438.9,248.4,441.6,245.7,445.5,245.7z"/>
		<path class="st3" d="M454.8,248.7h-1.6V246h1.6v-3.3h3.4v3.3h3v2.8h-3v6.4c0,0.9,0.4,1.3,1.4,1.3h1.6v2.8H459
			c-2.5,0-4.2-1.1-4.2-4.1V248.7z"/>
		<path class="st3" d="M469.3,259.5c-3.9,0-6.7-2.7-6.7-6.9c0-4.2,2.7-6.9,6.7-6.9c3.8,0,6.6,2.6,6.6,6.6c0,0.4,0,0.9-0.1,1.3h-9.7
			c0.2,2,1.5,3.1,3.2,3.1c1.4,0,2.2-0.7,2.7-1.6h3.6C474.8,257.5,472.6,259.5,469.3,259.5z M466.1,251.4h6.3c0-1.8-1.4-2.9-3.2-2.9
			C467.6,248.5,466.4,249.5,466.1,251.4z"/>
		<path class="st3" d="M483.6,245.7c1.8,0,3.4,0.8,4.3,2.1v-6.3h3.4v17.8h-3.4v-2c-0.8,1.2-2.3,2.2-4.4,2.2c-3.4,0-6.1-2.8-6.1-6.9
			S480.2,245.7,483.6,245.7z M484.4,248.7c-1.8,0-3.5,1.3-3.5,3.9c0,2.5,1.7,4,3.5,4c1.8,0,3.5-1.4,3.5-3.9S486.3,248.7,484.4,248.7
			z"/>
		<path class="st3" d="M496.1,259.4c-1.2,0-2.1-0.9-2.1-2c0-1.1,0.9-2,2.1-2c1.2,0,2,0.9,2,2C498.1,258.6,497.3,259.4,496.1,259.4z"
			/>
	</g>
</g>
</svg>
