<?xml version="1.0" encoding="utf-8"?>
<!-- Generator: Adobe Illustrator 26.0.2, SVG Export Plug-In . SVG Version: 6.00 Build 0)  -->
<svg version="1.1" id="Layer_1" xmlns="http://www.w3.org/2000/svg" xmlns:xlink="http://www.w3.org/1999/xlink" x="0px" y="0px"
	 viewBox="0 0 84 84" style="enable-background:new 0 0 84 84;" xml:space="preserve">
<style type="text/css">
	.st0{fill:#F1BD44;}
</style>
<g id="Layer_2_00000008116613010832076530000006965656487508501438_">
	<path class="st0" d="M23.7,31.8l-3.9,15.7c-2.7,11,4,22.1,15,24.9c11,2.7,22.1-4,24.9-15l6-24.2c0.6-1.6-0.2-3.4-1.8-4
		c-1.6-0.6-3.4,0.2-4,1.8c-0.1,0.2-0.1,0.4-0.2,0.6l-3.8,15.1l-2.4-0.6L59,23.9c0.6-1.6-0.2-3.4-1.8-4c-1.6-0.6-3.4,0.2-4,1.8
		c-0.1,0.2-0.1,0.4-0.2,0.6l-5,19.9l-2.4-0.6l5.8-23.5c0.6-1.6-0.2-3.4-1.8-4s-3.4,0.2-4,1.8c-0.1,0.2-0.1,0.4-0.2,0.6l-5.8,23.5
		l-2.4-0.6l4.7-18.7c0.6-1.6-0.2-3.4-1.8-4c-1.6-0.6-3.4,0.2-4,1.8c-0.1,0.2-0.1,0.4-0.2,0.6l-6.5,26c4.7,1.8,7.3,6.8,6.1,11.7
		L33,56.5c1-4-1.5-8-5.5-9l-1.2-0.3l3.5-13.9c0.6-1.6-0.2-3.4-1.8-4c-1.6-0.6-3.4,0.2-4,1.8C23.9,31.4,23.8,31.6,23.7,31.8
		L23.7,31.8z"/>
</g>
</svg>
