<?xml version="1.0" encoding="utf-8"?>
<!-- Generator: Adobe Illustrator 22.1.0, SVG Export Plug-In . SVG Version: 6.00 Build 0)  -->
<svg version="1.1" id="Capa_1" xmlns="http://www.w3.org/2000/svg" xmlns:xlink="http://www.w3.org/1999/xlink" x="0px" y="0px"
	 viewBox="0 0 512 512" style="enable-background:new 0 0 512 512;" xml:space="preserve">
<style type="text/css">
	.st0{fill:#FFC855;}
	.st1{fill:#EAE9E8;}
	.st2{fill:#F0AA23;}
</style>
<path class="st0" d="M501.1,382l-9.1-12.2c-4.1-5.5-5.5-12.5-3.9-19.1c3.7-15.3,8.3-45.5-5.5-72.6c-3-5.9-5.2-12.3-6.3-18.9
	c-7.7-45.8,15.4-107.5,15.9-108.9c8.1-25.6,11.3-35.8-8.2-45.2c-21.3-10.2-40.2,1.6-51.2,21.7c-1.5,2.7-23.7,44-28.8,97.5
	C370.9,180,292.6,74.8,266.6,39.8c-9.7-13.1-27.9-17.1-41.8-8.6c-15.9,9.7-19.7,30.8-8.9,45.4c-0.1-0.1-16.5-22.1-16-21.5
	c-10.2-13.7-29.6-17.3-43.5-7.5c-14.4,10.2-17.6,30.2-7.1,44.3c18.7,25.1,14.4,19.3,16.4,22.1c-10.8-14.5-31.7-17-45.6-5
	c-12.5,10.8-14.1,29.6-4.2,42.9l30.3,40.8c-10.9-14.6-32.1-17-46-4.6c-12.1,10.8-13.5,29.4-3.8,42.5c5,6.7,141.6,190.4,149.2,200.6
	c15.6,21,37,35.3,60.3,42.2c21.9,6.5,30.9,23.8,33.4,26.5l1.1,1.4c8.8,11.8,25.5,14.3,37.3,5.5L495.7,419
	C507.4,410.2,509.8,393.7,501.1,382z"/>
<g>
	<path class="st1" d="M394.2,85.1c-12.9-27.2-31.1-51.7-53.4-71.9c-3.1-2.8-3.4-7.6-0.5-10.8c2.8-3.1,7.6-3.4,10.8-0.5
		c23.8,21.5,43.2,47.6,57,76.6c1.8,3.8,0.2,8.3-3.6,10.1C400.6,90.5,396.1,88.9,394.2,85.1z"/>
	<path class="st1" d="M351.6,97c-9-17.1-20.6-32.8-34.4-46.3c-3-2.9-3-7.8-0.1-10.8c2.9-3,7.8-3,10.8-0.1
		c14.9,14.6,27.5,31.6,37.3,50.1c2,3.7,0.5,8.3-3.2,10.3C358.1,102.2,353.5,100.7,351.6,97z"/>
	<path class="st1" d="M63.4,334.8c-23.8-21.5-43.2-47.6-57-76.6c-1.8-3.8-0.2-8.3,3.6-10.1c3.8-1.8,8.3-0.2,10.1,3.6
		c12.9,27.2,31.1,51.7,53.4,71.9c3.1,2.8,3.4,7.6,0.5,10.8C71.3,337.4,66.5,337.6,63.4,334.8z"/>
	<path class="st1" d="M86.6,296.9c-14.9-14.6-27.5-31.6-37.3-50.1c-2-3.7-0.5-8.3,3.2-10.3c3.7-2,8.3-0.5,10.3,3.2
		c9,17.1,20.6,32.8,34.4,46.3c3,2.9,3,7.8,0.1,10.8C94.5,299.8,89.6,299.9,86.6,296.9z"/>
</g>
<g>
	<path class="st2" d="M150.7,93.7c11.5,15.5,102.8,138.3,99.8,134.2c5,6.8,14.7,7.8,21.1,2.4l0,0c5.8-5,6.8-13.6,2.2-19.8L192.4,101
		c0,0-0.1-0.1-0.1-0.1l-0.1-0.2c0-0.1-0.1-0.1-0.1-0.2l-0.1-0.1c0,0,0,0,0,0l-15.7-21.2c-8.4-11.3-8-26.4-0.1-37.2
		C151.2,40.5,132.1,68.8,150.7,93.7z"/>
	<path class="st2" d="M205.4,272.1c5.4,7.3,15.9,8.2,22.5,1.9l0,0c5.1-4.9,5.8-12.7,1.6-18.4c-10.6-14.3-78.5-105.5-86.6-116.4
		c-8.5-11.4-8.5-26.9-0.4-37.8c-26.6-1.6-42.7,28.8-26.6,50.4C156.4,206.2,163.3,215.5,205.4,272.1z"/>
	<path class="st2" d="M367.3,488.7l-1.1-1.4c-2.6-2.7-11.5-20-33.4-26.5c-23.3-6.9-44.7-21.2-60.3-42.2
		c-7.6-10.2-144.2-193.9-149.2-200.6c-8.4-11.4-8.5-26.8-0.4-37.8c-26.5-1.5-42.7,28.6-26.5,50.4c5,6.7,141.6,190.4,149.2,200.6
		c15.6,21,37,35.3,60.3,42.2c21.9,6.5,30.9,23.8,33.4,26.5l1.1,1.4c8.8,11.8,25.5,14.3,37.3,5.5l9.9-7.4
		C379.8,499,372.3,495.3,367.3,488.7z"/>
	<path class="st2" d="M242.9,64L242.9,64C242.9,64,242.9,64,242.9,64c-8.4-11.3-8-26.4-0.1-37.2c-5.5-0.4-11.1,0.7-16.2,3.4l0,0
		c-2.7,1.4-5.1,3.1-7.1,5.1c0,0,0,0,0,0h0c-10.9,10.4-12.9,27.2-4.5,39.9l1,1.4l90.1,121.2c5.3,7.1,15.5,7.9,21.9,1.9l0,0
		c5.9-5.6,6.6-14.8,1.7-21.2L242.9,64z M234.3,52.4l-0.5-0.6C234,52,234.1,52.2,234.3,52.4z"/>
	<path class="st2" d="M432.6,126.8c-0.9,1.7-9.9,18.4-17.8,43.8l0,0c-4.7,15.3-9.1,33.6-11,53.8l0,0c8.3,11.1,26,5.7,26.7-8.2
		l0.2-4.4c5.1-53.6,27.3-94.8,28.8-97.5c2.6-4.8,5.7-9.1,9.2-12.8C453.8,101.1,440.9,111.6,432.6,126.8z"/>
</g>
</svg>
